<?xml version="1.0" encoding="UTF-8"?>
<!DOCTYPE svg PUBLIC "-//W3C//DTD SVG 1.1//EN" "http://www.w3.org/Graphics/SVG/1.1/DTD/svg11.dtd">
<svg xmlns="http://www.w3.org/2000/svg" version="1.1" width="512px" height="512px" style="shape-rendering:geometricPrecision; text-rendering:geometricPrecision; image-rendering:optimizeQuality; fill-rule:evenodd; clip-rule:evenodd" xmlns:xlink="http://www.w3.org/1999/xlink">
<g><path style="opacity:0.994" fill="#fc9827" d="M 232.5,-0.5 C 247.833,-0.5 263.167,-0.5 278.5,-0.5C 368.144,10.3879 435.644,54.7213 481,132.5C 487.338,144.838 492.838,157.505 497.5,170.5C 462.167,135.5 426.833,100.5 391.5,65.5C 380.513,63.9916 369.513,64.6583 358.5,67.5C 334.383,74.9541 316.716,89.9541 305.5,112.5C 291.167,99.1667 276.833,85.8333 262.5,72.5C 251.679,71.5054 240.679,71.1721 229.5,71.5C 229.5,81.1667 229.5,90.8333 229.5,100.5C 219.833,91.1667 210.167,81.8333 200.5,72.5C 195.36,71.5119 190.026,71.1786 184.5,71.5C 179.167,71.5 173.833,71.5 168.5,71.5C 168.5,80.5 168.5,89.5 168.5,98.5C 158.5,89.5 148.5,80.5 138.5,71.5C 127.833,71.5 117.167,71.5 106.5,71.5C 106.333,115.168 106.5,158.835 107,202.5C 112.37,228.029 127.203,245.363 151.5,254.5C 151.5,271.167 151.5,287.833 151.5,304.5C 150.167,345.833 150.167,387.167 151.5,428.5C 153.2,439.848 158.867,448.514 168.5,454.5C 186.5,472.833 204.5,491.167 222.5,509.5C 142.598,497.653 80.7651,457.986 37,390.5C 16.1784,355.868 3.67839,318.535 -0.5,278.5C -0.5,263.167 -0.5,247.833 -0.5,232.5C 10.3875,142.857 54.7208,75.3573 132.5,30C 163.971,13.3053 197.304,3.1386 232.5,-0.5 Z"/></g>
<g><path style="opacity:1" fill="#d2eafe" d="M 391.5,65.5 C 391.5,127.5 391.5,189.5 391.5,251.5C 380.5,251.5 369.5,251.5 358.5,251.5C 358.5,190.167 358.5,128.833 358.5,67.5C 369.513,64.6583 380.513,63.9916 391.5,65.5 Z"/></g>
<g><path style="opacity:1" fill="#e97b0c" d="M 391.5,65.5 C 426.833,100.5 462.167,135.5 497.5,170.5C 504.608,190.721 509.275,211.388 511.5,232.5C 511.5,247.833 511.5,263.167 511.5,278.5C 500.612,368.144 456.279,435.644 378.5,481C 347.029,497.695 313.696,507.861 278.5,511.5C 263.167,511.5 247.833,511.5 232.5,511.5C 229.275,510.763 225.941,510.097 222.5,509.5C 204.5,491.167 186.5,472.833 168.5,454.5C 173.586,456.749 178.919,457.749 184.5,457.5C 201.811,456.36 212.644,447.36 217,430.5C 217.5,388.501 217.667,346.501 217.5,304.5C 217.5,287.833 217.5,271.167 217.5,254.5C 240.612,245.884 255.112,229.55 261,205.5C 262.468,161.2 262.968,116.867 262.5,72.5C 276.833,85.8333 291.167,99.1667 305.5,112.5C 303.369,118.727 301.536,125.061 300,131.5C 299.333,162.167 299.333,192.833 300,223.5C 303.556,237.221 312.056,246.221 325.5,250.5C 325.5,268.5 325.5,286.5 325.5,304.5C 325.333,346.835 325.5,389.168 326,431.5C 330.75,447.748 341.583,456.415 358.5,457.5C 375.4,456.435 386.233,447.768 391,431.5C 391.5,389.168 391.667,346.835 391.5,304.5C 391.5,287.167 391.5,269.833 391.5,252.5C 391.5,252.167 391.5,251.833 391.5,251.5C 391.5,189.5 391.5,127.5 391.5,65.5 Z"/></g>
<g><path style="opacity:1" fill="#edf8fe" d="M 358.5,67.5 C 358.5,128.833 358.5,190.167 358.5,251.5C 347.449,251.789 336.449,251.455 325.5,250.5C 312.056,246.221 303.556,237.221 300,223.5C 299.333,192.833 299.333,162.167 300,131.5C 301.536,125.061 303.369,118.727 305.5,112.5C 316.716,89.9541 334.383,74.9541 358.5,67.5 Z"/></g>
<g><path style="opacity:1" fill="#edf8fe" d="M 138.5,71.5 C 138.333,100.502 138.5,129.502 139,158.5C 143.187,169.51 150.687,172.677 161.5,168C 164.433,165.736 166.6,162.902 168,159.5C 168.5,139.169 168.667,118.836 168.5,98.5C 168.5,89.5 168.5,80.5 168.5,71.5C 173.833,71.5 179.167,71.5 184.5,71.5C 184.5,133.167 184.5,194.833 184.5,256.5C 173.395,256.984 162.395,256.317 151.5,254.5C 127.203,245.363 112.37,228.029 107,202.5C 106.5,158.835 106.333,115.168 106.5,71.5C 117.167,71.5 127.833,71.5 138.5,71.5 Z"/></g>
<g><path style="opacity:1" fill="#d2eafd" d="M 184.5,71.5 C 190.026,71.1786 195.36,71.5119 200.5,72.5C 200.333,101.835 200.5,131.169 201,160.5C 206.607,170.72 214.441,172.887 224.5,167C 225.787,165.59 226.954,164.09 228,162.5C 229.465,141.9 229.965,121.234 229.5,100.5C 229.5,90.8333 229.5,81.1667 229.5,71.5C 240.679,71.1721 251.679,71.5054 262.5,72.5C 262.968,116.867 262.468,161.2 261,205.5C 255.112,229.55 240.612,245.884 217.5,254.5C 212.57,255.648 207.57,256.315 202.5,256.5C 196.5,256.5 190.5,256.5 184.5,256.5C 184.5,194.833 184.5,133.167 184.5,71.5 Z"/></g>
<g><path style="opacity:1" fill="#ea7b0d" d="M 138.5,71.5 C 148.5,80.5 158.5,89.5 168.5,98.5C 168.667,118.836 168.5,139.169 168,159.5C 166.6,162.902 164.433,165.736 161.5,168C 150.687,172.677 143.187,169.51 139,158.5C 138.5,129.502 138.333,100.502 138.5,71.5 Z"/></g>
<g><path style="opacity:1" fill="#ea7b0d" d="M 200.5,72.5 C 210.167,81.8333 219.833,91.1667 229.5,100.5C 229.965,121.234 229.465,141.9 228,162.5C 226.954,164.09 225.787,165.59 224.5,167C 214.441,172.887 206.607,170.72 201,160.5C 200.5,131.169 200.333,101.835 200.5,72.5 Z"/></g>
<g><path style="opacity:1" fill="#fee680" d="M 325.5,250.5 C 336.449,251.455 347.449,251.789 358.5,251.5C 369.5,251.5 380.5,251.5 391.5,251.5C 391.5,251.833 391.5,252.167 391.5,252.5C 380.5,252.5 369.5,252.5 358.5,252.5C 358.5,269.833 358.5,287.167 358.5,304.5C 347.5,304.5 336.5,304.5 325.5,304.5C 325.5,286.5 325.5,268.5 325.5,250.5 Z"/></g>
<g><path style="opacity:1" fill="#fbbe2c" d="M 391.5,252.5 C 391.5,269.833 391.5,287.167 391.5,304.5C 380.5,304.5 369.5,304.5 358.5,304.5C 358.5,287.167 358.5,269.833 358.5,252.5C 369.5,252.5 380.5,252.5 391.5,252.5 Z"/></g>
<g><path style="opacity:1" fill="#fee67f" d="M 151.5,254.5 C 162.395,256.317 173.395,256.984 184.5,256.5C 190.5,256.5 196.5,256.5 202.5,256.5C 196.69,257.49 190.69,257.823 184.5,257.5C 184.5,273.167 184.5,288.833 184.5,304.5C 173.5,304.5 162.5,304.5 151.5,304.5C 151.5,287.833 151.5,271.167 151.5,254.5 Z"/></g>
<g><path style="opacity:1" fill="#fabe2c" d="M 217.5,254.5 C 217.5,271.167 217.5,287.833 217.5,304.5C 206.5,304.5 195.5,304.5 184.5,304.5C 184.5,288.833 184.5,273.167 184.5,257.5C 190.69,257.823 196.69,257.49 202.5,256.5C 207.57,256.315 212.57,255.648 217.5,254.5 Z"/></g>
<g><path style="opacity:1" fill="#5f5452" d="M 184.5,305.5 C 184.5,356.167 184.5,406.833 184.5,457.5C 178.919,457.749 173.586,456.749 168.5,454.5C 158.867,448.514 153.2,439.848 151.5,428.5C 151.5,387.5 151.5,346.5 151.5,305.5C 162.5,305.5 173.5,305.5 184.5,305.5 Z"/></g>
<g><path style="opacity:1" fill="#4c403f" d="M 184.5,304.5 C 195.5,304.5 206.5,304.5 217.5,304.5C 217.667,346.501 217.5,388.501 217,430.5C 212.644,447.36 201.811,456.36 184.5,457.5C 184.5,406.833 184.5,356.167 184.5,305.5C 184.5,305.167 184.5,304.833 184.5,304.5 Z"/></g>
<g><path style="opacity:1" fill="#605552" d="M 325.5,304.5 C 336.5,304.5 347.5,304.5 358.5,304.5C 358.5,355.5 358.5,406.5 358.5,457.5C 341.583,456.415 330.75,447.748 326,431.5C 325.5,389.168 325.333,346.835 325.5,304.5 Z"/></g>
<g><path style="opacity:1" fill="#4c403f" d="M 358.5,304.5 C 369.5,304.5 380.5,304.5 391.5,304.5C 391.667,346.835 391.5,389.168 391,431.5C 386.233,447.768 375.4,456.435 358.5,457.5C 358.5,406.5 358.5,355.5 358.5,304.5 Z"/></g>
<g><path style="opacity:1" fill="#ae7d45" d="M 151.5,304.5 C 162.5,304.5 173.5,304.5 184.5,304.5C 184.5,304.833 184.5,305.167 184.5,305.5C 173.5,305.5 162.5,305.5 151.5,305.5C 151.5,346.5 151.5,387.5 151.5,428.5C 150.167,387.167 150.167,345.833 151.5,304.5 Z"/></g>
</svg>
