<?xml version="1.0" encoding="UTF-8"?>
<!DOCTYPE svg PUBLIC "-//W3C//DTD SVG 1.1//EN" "http://www.w3.org/Graphics/SVG/1.1/DTD/svg11.dtd">
<!-- Creator: CorelDRAW -->
<svg xmlns="http://www.w3.org/2000/svg" xml:space="preserve" width="124.371mm" height="124.323mm" version="1.1" style="shape-rendering:geometricPrecision; text-rendering:geometricPrecision; image-rendering:optimizeQuality; fill-rule:evenodd; clip-rule:evenodd"
viewBox="0 0 3043.23 3042.06"
 xmlns:xlink="http://www.w3.org/1999/xlink"
 xmlns:xodm="http://www.corel.com/coreldraw/odm/2003">
 <defs>
  <style type="text/css">
   <![CDATA[
    .fil0 {fill:#55853A}
   ]]>
  </style>
 </defs>
 <g id="Layer_x0020_1">
  <metadata id="CorelCorpID_0Corel-Layer"/>
  <g id="_2373529697936">
   <path class="fil0" d="M-0 1501.61c0,259.01 53.09,461.13 136.06,647.41 54.86,123.16 168.07,302.51 263.82,396.62 20.24,19.9 26.68,33.78 45.01,52.11 49,49 147.5,126.56 206.29,169.26 59.92,43.52 175.33,111.02 243.26,138.77 45.73,18.68 85.67,37.45 134.21,53.56 524.88,174.3 1051.42,67.56 1462.72,-267.83l103.65 -90.6c19.13,-18.71 24.78,-30.44 41.82,-48.83l87.28 -100.49c15.4,-20.68 26.7,-36.51 40.73,-56.4 170.71,-242.01 278.38,-544.33 278.38,-867.69l0 -135.97c0,-130.3 -171.28,-188.34 -253.74,-78.91 -30.52,40.51 -24.71,77.15 -24.69,143.66 0.08,291.24 -64.7,553.16 -229.34,780.75 -182.82,252.7 -453.48,451.66 -829.64,510.68 -263.53,41.35 -599.8,-21.92 -813.62,-156.98 -140.04,-88.46 -136.33,-90.68 -247.16,-193.14l-6.66 -6.29c-60.05,-60.05 -128.31,-144.16 -171.9,-216.59 -70.07,-116.44 -114.76,-217.46 -149.23,-355.81 -84.41,-338.78 -21.24,-722.42 185,-1006.42 129.62,-178.5 303.25,-339.73 508.73,-423.66 74.83,-30.57 146.44,-60.33 232.72,-78.08 249.41,-51.3 442.04,-43.8 681.83,35.86 32.44,10.77 54.49,19.34 83.84,32.71 169.8,77.34 267.18,-108.42 180.44,-212.82 -35.1,-42.25 -185.27,-89.8 -243.1,-106.55 -338.93,-98.16 -748.62,-78.12 -1057.52,77.58 -134.12,67.61 -158.82,75.59 -291.67,174.53 -98.31,73.22 -209.21,183.07 -282.13,281.19l-113.44 171.46c-54.29,89.86 -80.49,164.12 -117.84,257.71 -15.63,39.16 -32.34,98.28 -42.54,145.23 -22.83,105.04 -41.58,209.95 -41.58,333.97z"/>
   <path class="fil0" d="M1521.62 1598.74c-38.43,-25.73 -303.27,-309.24 -340.23,-333.17 -88.87,-57.54 -202.59,2.9 -214.32,109 -8.74,79.13 62.53,130.37 102.92,170.75 94.39,94.39 184.03,184.03 278.42,278.42 43.41,43.41 87.18,106.4 163.44,114.48 77.02,8.16 128.83,-60.34 170.02,-101.53l1249.67 -1249.67c46.2,-46.2 111.69,-94.08 111.69,-173.21 0,-76.74 -57.98,-135.97 -148.93,-135.97 -55.05,0 -79.67,31 -108.46,59.89 -145.01,145.53 -1228.1,1236.8 -1264.24,1261z"/>
  </g>
 </g>
</svg>
