<svg width="126" height="97" viewBox="0 0 126 97" fill="none" xmlns="http://www.w3.org/2000/svg">
<path d="M89.5103 22.4803H88.6235C88.4486 22.4803 88.3068 22.6121 88.3068 22.7746V33.8275C88.3068 33.99 88.4486 34.1217 88.6235 34.1217H89.5103C89.6852 34.1217 89.827 33.99 89.827 33.8275V22.7746C89.827 22.6121 89.6852 22.4803 89.5103 22.4803Z" fill="#3F3D56"/>
<path d="M83.7358 0.69445H43.6658C40.6883 0.69445 38.2747 2.93736 38.2747 5.70413V91.7225C38.2747 94.4892 40.6883 96.7321 43.6658 96.7321H83.7358C86.7133 96.7321 89.127 94.4892 89.127 91.7225V5.70413C89.127 2.93736 86.7133 0.69445 83.7358 0.69445Z" fill="#3F3D56"/>
<path d="M82.0491 3.19594H76.2158V3.84801C76.2158 4.2539 76.1297 4.65581 75.9625 5.03078C75.7953 5.40575 75.5503 5.74643 75.2413 6.03336C74.9324 6.32028 74.5656 6.54784 74.162 6.70301C73.7584 6.85818 73.3258 6.93794 72.889 6.93772H54.3376C53.9008 6.93794 53.4683 6.85818 53.0647 6.70301C52.6611 6.54784 52.2943 6.32028 51.9854 6.03336C51.6764 5.74643 51.4314 5.40575 51.2642 5.03078C51.0969 4.65581 51.0109 4.2539 51.0109 3.84801V3.19594H45.5493C44.4781 3.19594 43.4509 3.59134 42.6935 4.29516C41.9361 4.99897 41.5106 5.95355 41.5106 6.9489V90.4842C41.5106 91.4796 41.9361 92.4342 42.6935 93.138C43.4509 93.8418 44.4781 94.2372 45.5493 94.2372H82.0491C83.1202 94.2372 84.1475 93.8418 84.9049 93.138C85.6623 92.4342 86.0878 91.4796 86.0878 90.4842V6.95532C86.0887 6.46194 85.9849 5.97323 85.7824 5.51716C85.5798 5.06109 85.2825 4.6466 84.9073 4.29743C84.5322 3.94825 84.0867 3.67124 83.5962 3.48223C83.1058 3.29323 82.5801 3.19594 82.0491 3.19594Z" fill="white"/>
<path d="M65.3617 3.56251H59.3308C59.0353 3.56251 58.7957 3.78514 58.7957 4.05976V4.40449C58.7957 4.6791 59.0353 4.90173 59.3308 4.90173H65.3617C65.6572 4.90173 65.8968 4.6791 65.8968 4.40449V4.05976C65.8968 3.78514 65.6572 3.56251 65.3617 3.56251Z" fill="#E6E8EC"/>
<path d="M67.7893 4.99269C68.2413 4.99269 68.6077 4.6522 68.6077 4.23218C68.6077 3.81216 68.2413 3.47167 67.7893 3.47167C67.3373 3.47167 66.9709 3.81216 66.9709 4.23218C66.9709 4.6522 67.3373 4.99269 67.7893 4.99269Z" fill="#E6E8EC"/>
<path d="M64.0113 58.8315C69.3241 58.8315 73.6311 54.8293 73.6311 49.8923C73.6311 44.9554 69.3241 40.9532 64.0113 40.9532C58.6984 40.9532 54.3915 44.9554 54.3915 49.8923C54.3915 54.8293 58.6984 58.8315 64.0113 58.8315Z" fill="white"/>
<path d="M76.664 48.6441C76.6639 51.0071 75.9098 53.317 74.497 55.2817C73.0841 57.2465 71.076 58.7777 68.7267 59.682C66.3773 60.5862 63.7921 60.8227 61.2981 60.3616C58.804 59.9005 56.5131 58.7626 54.7151 57.0916C52.917 55.4207 51.6926 53.2918 51.1966 50.9742C50.7005 48.6566 50.9552 46.2543 51.9284 44.0712C52.9017 41.8881 54.5497 40.0222 56.6641 38.7095C58.7785 37.3967 61.2643 36.6961 63.8072 36.6962C65.4957 36.6962 67.1675 37.0053 68.7274 37.6058C70.2873 38.2062 71.7047 39.0863 72.8985 40.1958C74.0924 41.3053 75.0394 42.6224 75.6855 44.0719C76.3316 45.5215 76.6641 47.0751 76.664 48.6441ZM62.321 54.9682L71.8583 46.1056C71.9355 46.0341 71.9968 45.9491 72.0386 45.8555C72.0804 45.762 72.1019 45.6617 72.1019 45.5604C72.1019 45.4591 72.0804 45.3588 72.0386 45.2652C71.9968 45.1716 71.9355 45.0867 71.8583 45.0151L70.6849 43.9326C70.608 43.861 70.5167 43.8041 70.4162 43.7653C70.3156 43.7265 70.2078 43.7065 70.0989 43.7065C69.9901 43.7065 69.8823 43.7265 69.7817 43.7653C69.6812 43.8041 69.5899 43.861 69.513 43.9326L61.7343 51.1611L58.1022 47.7781C57.9463 47.634 57.7354 47.5531 57.5155 47.5531C57.2956 47.5531 57.0847 47.634 56.9288 47.7781L55.7553 48.875C55.6002 49.0199 55.5132 49.2159 55.5132 49.4202C55.5132 49.6245 55.6002 49.8206 55.7553 49.9654L61.1478 54.9746C61.2247 55.0463 61.3162 55.1032 61.4169 55.1421C61.5176 55.1809 61.6255 55.2009 61.7345 55.2009C61.8435 55.2009 61.9515 55.1809 62.0521 55.1421C62.1528 55.1032 62.2443 55.0463 62.3212 54.9746L62.321 54.9682Z" fill="#55853A"/>
<path d="M39.8668 19.6278H39.7336C39.5588 19.6278 39.417 19.7595 39.417 19.922V22.7787C39.417 22.9412 39.5588 23.0729 39.7336 23.0729H39.8668C40.0417 23.0729 40.1834 22.9412 40.1834 22.7787V19.922C40.1834 19.7595 40.0417 19.6278 39.8668 19.6278Z" fill="#3F3D56"/>
<path d="M39.9362 25.9361H39.7059C39.531 25.9361 39.3892 26.0678 39.3892 26.2303V31.6378C39.3892 31.8003 39.531 31.932 39.7059 31.932H39.9362C40.1111 31.932 40.2528 31.8003 40.2528 31.6378V26.2303C40.2528 26.0678 40.1111 25.9361 39.9362 25.9361Z" fill="#3F3D56"/>
<path d="M39.9084 34.0301H39.7197C39.5448 34.0301 39.403 34.1618 39.403 34.3243V39.7833C39.403 39.9458 39.5448 40.0775 39.7197 40.0775H39.9084C40.0833 40.0775 40.225 39.9458 40.225 39.7833V34.3243C40.225 34.1618 40.0833 34.0301 39.9084 34.0301Z" fill="#3F3D56"/>
<path d="M29.217 50.0216C29.2389 50.0411 29.2672 50.0536 29.2975 50.0571C29.3278 50.0607 29.3585 50.0552 29.3851 50.0414C29.3283 50.0422 29.2717 50.0356 29.217 50.0216Z" fill="url(#paint0_linear_552_1241)"/>
<path d="M35.5724 52.3317L35.4064 53.1715L35.2784 53.8139L35.0455 54.989L32.7878 56.4579C32.7878 56.4579 32.5842 56.296 32.2485 56.0408C31.3232 55.3328 29.3785 53.8912 27.9504 53.1174C27.5831 52.8998 27.1857 52.7296 26.769 52.6115L35.5724 52.3317Z" fill="#FEB9B9"/>
<path d="M33.9159 52.9565C33.9159 52.9565 36.5484 53.3764 36.7026 52.3317C36.8568 51.2869 35.3476 50.7224 34.0686 50.6521C32.7896 50.5818 25.1132 51.072 25.1132 51.072C25.1132 51.072 23.7591 52.7501 28.6494 53.031L33.9159 52.9565Z" fill="#3F3D56"/>
<path d="M25.9013 18.4827H39.6729V33.6575H25.9013V18.4827Z" fill="#2F2E41"/>
<path opacity="0.1" d="M25.9013 18.5516H39.6729V33.7263H25.9013V18.5516Z" fill="black"/>
<path d="M9.76108 44.4598C9.53432 44.5129 9.24451 44.7168 8.9222 45.0116C7.53426 46.2884 5.54637 49.285 5.54637 49.285C3.00484 46.4718 5.81723 44.2491 7.01603 43.4853C7.3075 43.3004 7.50329 43.1986 7.50329 43.1986L9.76108 44.4598Z" fill="#FEB9B9"/>
<path d="M35.4212 23.2721C35.4212 23.2721 36.0987 27.6773 38.4314 28.7263C40.7641 29.7753 35.4212 31.7357 35.4212 31.7357L28.1221 29.2163C28.1221 29.2163 32.2613 27.9572 31.4331 24.2507L35.4212 23.2721Z" fill="#FEB9B9"/>
<path d="M27.5948 49.775L27.4297 50.612L27.2955 51.2569L27.0627 52.432L24.8049 53.8995C24.8049 53.8995 24.6014 53.739 24.2657 53.4839C23.3404 52.776 21.3957 51.3344 19.9655 50.5605C19.5983 50.3426 19.2009 50.1724 18.7841 50.0546L27.5948 49.775Z" fill="#FEB9B9"/>
<path d="M25.6416 50.8072C25.6416 50.8072 28.0042 50.8227 28.1464 49.775C28.2885 48.7274 26.8588 48.1658 25.6416 48.0955C24.4245 48.0252 17.029 48.548 17.029 48.548C17.029 48.548 15.9798 50.5267 20.6316 50.807L25.6416 50.8072Z" fill="#2F2E41"/>
<path d="M42.2067 67.2656C42.1034 67.2184 42 67.1697 41.8982 67.1224L41.6206 66.797L37.9795 62.5065V62.581C37.9549 63.2976 37.6928 68.9754 35.6478 69.4999C33.4656 70.0588 30.8331 70.1992 29.6331 66.4231C28.433 62.6471 26.2404 54.3954 23.9886 53.9054L27.3382 51.3531C27.3382 51.3531 29.5559 53.7635 30.4595 56.0707C30.4256 55.9275 28.8942 49.2781 30.151 48.1015H41.14C41.14 48.1015 42.8364 52.5913 43.9991 54.8154C44.9043 56.5423 46.263 60.6251 47.1378 63.388C48.0038 66.1163 44.961 68.5253 42.2067 67.2656Z" fill="#3F3D56"/>
<path opacity="0.1" d="M41.8936 49.3551C40.1972 50.2881 32.75 49.9083 30.3273 49.7564L29.6672 49.712C29.5963 49.712 29.678 49.6747 29.678 49.6747L29.7459 49.0398L31.5518 44.775L41.2212 39.5644C41.0253 40.1133 40.9606 40.953 40.9761 41.9146C41.0207 45.0043 41.8936 49.3551 41.8936 49.3551Z" fill="black"/>
<path d="M41.8937 49.1446C40.1973 50.0775 32.7501 49.6977 30.3273 49.5458L29.6672 49.5028L29.5577 49.4942L29.678 49.4655L30.2733 49.3223L31.5517 44.5674L41.2211 39.3582C41.0254 39.907 40.9605 40.7468 40.976 41.7084C41.0208 44.7952 41.8937 49.1446 41.8937 49.1446Z" fill="#EFEFEF"/>
<path opacity="0.1" d="M40.9699 41.7055C39.0036 42.1268 34.6763 43.3629 33.0138 46.3486C31.905 48.3363 30.9719 49.1889 30.3211 49.5457L29.661 49.5027C29.6653 49.4904 29.6689 49.478 29.6718 49.4654L30.267 49.3221L31.5455 44.5672L41.2149 39.3582C41.0213 39.9041 40.9544 40.7439 40.9699 41.7055Z" fill="black"/>
<path opacity="0.1" d="M7.50325 43.2017L9.76105 44.46C9.53428 44.513 9.24447 44.7169 8.92217 45.0117C8.73398 44.5015 7.5533 43.7893 7.01599 43.4855C7.30732 43.3034 7.50325 43.2017 7.50325 43.2017Z" fill="black"/>
<path opacity="0.1" d="M29.2587 49.5844C29.2339 49.5963 29.2058 49.6008 29.1781 49.5972C29.1505 49.5936 29.1248 49.5822 29.1045 49.5645C29.1546 49.578 29.2065 49.5847 29.2587 49.5844Z" fill="black"/>
<path d="M34.3679 28.4468C34.3679 28.4468 32.3354 28.656 30.9058 27.2574C30.9058 27.2574 24.8911 28.8667 22.8541 32.5024C20.8172 36.138 6.96967 43.2718 6.96967 43.2718C6.96967 43.2718 9.37859 44.5301 9.15183 45.1592L18.2584 40.2638C18.2584 40.2638 21.4969 38.097 22.3961 37.607C23.2952 37.117 28.2671 34.1104 29.3204 42.2917C30.3738 50.4731 29.3204 49.4943 29.3204 49.4943C29.3204 49.4943 30.8256 49.9845 33.0078 46.0678C35.19 42.1512 41.9617 41.2426 41.9617 41.2426L42.3379 37.1182C42.3379 37.1182 43.6812 34.3839 42.6464 33.249C42.3329 32.913 42.1244 32.5036 42.0434 32.0653C41.8722 31.0177 42.0434 29.2722 44.4399 27.822C48.1272 25.5835 49.5568 23.7665 49.5568 23.7665C49.5568 23.7665 49.6323 22.4366 47.3746 21.8074C45.117 21.1782 35.9363 17.7519 35.9363 17.7519L35.6279 18.9413L42.8715 23.6919C42.8715 23.6919 39.2598 26.4147 36.3944 26.3488C36.3943 26.3488 36.9263 28.3765 34.3679 28.4468Z" fill="#55853A"/>
<path opacity="0.1" d="M35.762 25.1895C35.584 24.6289 35.445 24.0583 35.3457 23.4812L31.3576 24.4603C31.5334 25.1678 31.502 25.9061 31.2666 26.5984C32.082 26.8006 32.9434 26.7748 33.743 26.5241C34.5427 26.2735 35.245 25.8092 35.762 25.1895Z" fill="black"/>
<path d="M32.4495 26.5238C34.8182 26.5238 36.7384 24.7395 36.7384 22.5384C36.7384 20.3373 34.8182 18.553 32.4495 18.553C30.0809 18.553 28.1607 20.3373 28.1607 22.5384C28.1607 24.7395 30.0809 26.5238 32.4495 26.5238Z" fill="#FEB9B9"/>
<path opacity="0.1" d="M37.1145 54.6345C37.1145 54.6345 39.5974 59.1803 38.8448 60.5774L37.1145 54.6345Z" fill="black"/>
<path d="M34.7302 13.3338C35.9207 13.4599 37.0512 13.9342 38.2233 14.1936C38.5163 14.2782 38.8281 14.2891 39.1271 14.2251C39.582 14.0947 39.9521 13.6519 40.424 13.6648C40.7144 13.6734 40.9714 13.8568 41.2105 14.033C41.5938 14.3056 41.9547 14.6046 42.29 14.9273C43.098 15.7426 43.5992 16.8404 44.3363 17.7275C45.0735 18.6146 46.1247 19.6548 47.1718 19.248C46.4595 21.8275 44.2376 23.4411 41.7132 23.6018C40.7062 23.666 39.6745 23.4713 38.6998 23.745C38.4571 23.8375 38.2007 23.8955 37.9393 23.9169C37.378 23.9169 36.9261 23.4383 36.576 22.9726C35.7555 21.8777 35.1063 20.6353 34.1826 19.6364C33.8741 19.3054 33.5179 18.9915 33.0861 18.9314C32.6543 18.8713 32.258 19.0632 31.874 19.2481C31.2402 19.5534 30.5925 19.8686 30.1006 20.3946C29.6086 20.9206 29.2986 21.6972 29.5022 22.4009C29.6117 22.7821 29.8617 23.1261 29.8661 23.5244C29.8753 24.1607 29.2708 24.625 29.1521 25.2441C29.1252 25.5041 29.1155 25.7654 29.1227 26.0265C29.0703 26.8746 28.4729 27.5684 27.8507 28.103C27.607 28.3094 27.3391 28.5329 27.2677 28.8525C27.2199 29.0717 27.2677 29.3022 27.2369 29.5246C27.1459 30.0749 26.5552 30.3543 26.0324 30.426C25.4216 30.5101 24.7977 30.4413 24.225 30.2269C24.956 29.9057 25.4064 28.9916 25.2367 28.1733C25.0039 27.0382 23.7763 26.2229 23.8817 25.0679C23.9394 24.7135 24.0537 24.3692 24.221 24.0462C24.4885 23.422 24.6829 22.773 24.8009 22.1102C24.8934 21.5985 24.9382 21.0554 24.7653 20.5668C24.6112 20.1225 24.2889 19.7686 24.0158 19.3931C23.6457 18.8821 23.3536 18.3261 23.1476 17.7407C23.0729 17.5671 23.0445 17.3793 23.0646 17.1932C23.1265 16.9735 23.2582 16.7762 23.4425 16.6271C24.1134 15.9719 24.8305 15.2915 25.7296 15.1038C26.1586 15.0376 26.5949 15.0222 27.0281 15.0579C27.7815 15.0799 28.5356 15.0502 29.2842 14.969C29.9011 14.9017 30.9435 14.9103 31.4664 14.5391C31.9537 14.1922 32.2283 13.7566 32.8281 13.536C33.4355 13.3268 34.0885 13.2574 34.7311 13.3339L34.7302 13.3338Z" fill="#2F2E41"/>
<path d="M114.421 96.4935C117.857 96.4935 120.643 96.0558 120.643 95.5159C120.643 94.9759 117.857 94.5382 114.421 94.5382C110.985 94.5382 108.2 94.9759 108.2 95.5159C108.2 96.0558 110.985 96.4935 114.421 96.4935Z" fill="#55853A"/>
<path d="M116.994 93.9172C117.278 93.7017 117.485 93.4115 117.587 93.0847C117.664 92.7555 117.513 92.3652 117.172 92.2378C116.791 92.1027 116.384 92.3486 116.077 92.5958C115.769 92.843 115.414 93.1263 115.011 93.0731C115.219 92.8985 115.374 92.6768 115.462 92.4296C115.551 92.1824 115.568 91.9182 115.514 91.6627C115.496 91.5568 115.447 91.4575 115.373 91.3752C115.163 91.1652 114.779 91.2544 114.527 91.4212C113.722 91.9459 113.498 92.963 113.493 93.8753C113.411 93.5461 113.481 93.2024 113.478 92.8688C113.475 92.5353 113.377 92.1493 113.069 91.9732C112.879 91.8784 112.666 91.8318 112.451 91.838C112.089 91.8251 111.686 91.8596 111.439 92.1054C111.129 92.4101 111.213 92.922 111.479 93.2556C111.745 93.5891 112.152 93.8033 112.526 94.0348C112.826 94.2009 113.081 94.4275 113.273 94.6977C113.296 94.7355 113.315 94.7755 113.328 94.8171H115.589C116.099 94.5773 116.571 94.2748 116.994 93.9177L116.994 93.9172Z" fill="#55853A"/>
<path d="M29.8353 96.925C32.1029 96.925 33.9411 96.6361 33.9411 96.2798C33.9411 95.9234 32.1029 95.6345 29.8353 95.6345C27.5678 95.6345 25.7296 95.9234 25.7296 96.2798C25.7296 96.6361 27.5678 96.925 29.8353 96.925Z" fill="#EFEFEF"/>
<path d="M31.5334 95.2246C31.7205 95.0824 31.8568 94.8909 31.9244 94.6752C31.9542 94.567 31.9433 94.4526 31.8935 94.351C31.8437 94.2494 31.7581 94.1666 31.6508 94.1163C31.3995 94.0272 31.131 94.1894 30.9279 94.3526C30.7248 94.5158 30.4908 94.7027 30.2244 94.6677C30.3615 94.5524 30.4642 94.406 30.5224 94.2429C30.5805 94.0798 30.5922 93.9055 30.5562 93.7369C30.5443 93.667 30.5122 93.6014 30.4633 93.5471C30.325 93.4086 30.0712 93.4675 29.9048 93.5774C29.3739 93.9244 29.2258 94.5945 29.2228 95.1971C29.1687 94.9799 29.2146 94.7531 29.2125 94.533C29.2105 94.3129 29.1462 94.0586 28.9429 93.942C28.8175 93.8795 28.6767 93.8487 28.5345 93.8528C28.2955 93.8443 28.0301 93.8671 27.8666 94.0293C27.6624 94.2305 27.7176 94.5683 27.8932 94.7884C28.0688 95.0085 28.3373 95.15 28.5845 95.3024C28.7821 95.4117 28.9507 95.561 29.0777 95.7392C29.093 95.7642 29.1054 95.7906 29.1145 95.818H30.6063C30.9427 95.6596 31.2545 95.4598 31.5334 95.224V95.2246Z" fill="#EFEFEF"/>
<path d="M6.61546 96.925C8.88301 96.925 10.7212 96.6361 10.7212 96.2798C10.7212 95.9234 8.88301 95.6345 6.61546 95.6345C4.34792 95.6345 2.5097 95.9234 2.5097 96.2798C2.5097 96.6361 4.34792 96.925 6.61546 96.925Z" fill="#EFEFEF"/>
<path d="M8.3136 95.2246C8.5007 95.0824 8.63703 94.8909 8.70462 94.6752C8.73439 94.567 8.72349 94.4526 8.67372 94.351C8.62396 94.2494 8.53832 94.1666 8.43099 94.1163C8.17975 94.0272 7.91123 94.1894 7.70811 94.3526C7.50499 94.5158 7.27105 94.7027 7.00461 94.6677C7.14175 94.5524 7.2444 94.406 7.30256 94.2429C7.36072 94.0798 7.3724 93.9055 7.33645 93.7369C7.32448 93.667 7.29238 93.6014 7.24353 93.5471C7.10526 93.4086 6.8514 93.4675 6.68506 93.5774C6.15411 93.9244 6.00602 94.5945 6.00298 95.1971C5.94892 94.9799 5.99482 94.7531 5.99275 94.533C5.99067 94.3129 5.92638 94.0586 5.72313 93.942C5.59776 93.8795 5.45689 93.8487 5.31468 93.8528C5.07575 93.8443 4.81028 93.8671 4.64684 94.0293C4.44262 94.2305 4.49778 94.5683 4.67338 94.7884C4.84899 95.0085 5.1175 95.15 5.36473 95.3024C5.56234 95.4117 5.73092 95.561 5.85794 95.7392C5.87324 95.7642 5.88557 95.7906 5.89472 95.818H7.3865C7.72287 95.6596 8.03472 95.4598 8.3136 95.224V95.2246Z" fill="#EFEFEF"/>
<path d="M0.354614 96.5565H125.152V96.7905H0.354614V96.5565Z" fill="#2F2E41"/>
<path d="M119.06 7.18609C119.06 7.18609 106.032 6.45565 107.567 14.9386C107.567 14.9386 107.258 16.4381 108.724 17.1182C108.724 17.1182 108.748 16.4899 110.061 16.7041C110.529 16.7761 111.004 16.7973 111.477 16.7673C112.115 16.7283 112.722 16.4977 113.207 16.1102C113.207 16.1102 116.869 14.7041 118.292 9.14281C118.292 9.14281 119.346 7.92939 119.304 7.61729L117.106 8.48997C117.106 8.48997 117.858 9.96371 117.261 11.1882C117.261 11.1882 117.189 8.54265 116.767 8.60021C116.682 8.61178 115.625 9.11056 115.625 9.11056C115.625 9.11056 116.917 11.6769 115.942 13.5433C115.942 13.5433 116.312 10.3803 115.221 9.29609L113.674 10.1358C113.674 10.1358 115.184 12.7871 114.16 14.9509C114.16 14.9509 114.423 11.6325 113.348 10.3399L111.946 11.3564C111.946 11.3564 113.365 13.9688 112.5 15.7634C112.5 15.7634 112.387 11.9015 111.642 11.6097C111.642 11.6097 110.415 12.6162 110.228 13.0273C110.228 13.0273 111.2 14.9252 110.596 15.9259C110.596 15.9259 110.227 13.3523 109.923 13.3379C109.923 13.3379 108.701 15.043 108.574 16.2134C108.574 16.2134 108.627 14.4751 109.628 13.1769C109.628 13.1769 108.446 13.3653 107.756 14.0763C107.756 14.0763 107.946 12.8715 109.929 12.7651C109.929 12.7651 110.94 11.4711 111.209 11.3935C111.209 11.3935 109.238 11.2393 108.042 11.7328C108.042 11.7328 109.094 10.5956 111.571 11.1131L112.956 10.0621C112.956 10.0621 110.36 9.73282 109.258 10.0967C109.258 10.0967 110.525 9.09026 113.329 9.82353L114.836 8.9867C114.836 8.9867 112.622 8.54381 111.304 8.69915C111.304 8.69915 112.696 8.00185 115.278 8.75812L116.361 8.30842C116.361 8.30842 114.74 8.01226 114.265 7.96485C113.79 7.91744 113.765 7.79666 113.765 7.79666C114.792 7.6375 115.847 7.74652 116.812 8.11158C116.812 8.11158 119.099 7.31985 119.06 7.18609Z" fill="#55853A"/>
<path d="M101.21 2.69511C101.21 2.69511 95.3304 2.3658 96.0173 6.19893C96.0173 6.19893 95.879 6.87618 96.5402 7.18378C96.5402 7.18378 96.551 6.89623 97.1452 6.99542C97.3562 7.02843 97.5706 7.03809 97.7841 7.0242C98.0727 7.00645 98.3471 6.9014 98.5655 6.72508C98.5655 6.72508 100.221 6.08959 100.865 3.5764C100.865 3.5764 101.34 3.02866 101.321 2.88771L100.328 3.28165C100.328 3.28165 100.666 3.94734 100.4 4.50086C100.4 4.50086 100.368 3.30594 100.178 3.33343C100.139 3.33343 99.6607 3.56471 99.6607 3.56471C99.6607 3.56471 100.246 4.72494 99.8046 5.56755C99.8046 5.56755 99.9717 4.1384 99.4782 3.6481L98.7788 4.03355C98.7788 4.03355 99.4612 5.23118 98.9985 6.20896C98.9985 6.20896 99.1177 4.70939 98.6318 4.12568L97.999 4.58579C97.999 4.58579 98.6396 5.76619 98.2497 6.57732C98.2497 6.57732 98.1971 4.83184 97.8613 4.69963C97.8613 4.69963 97.3074 5.15396 97.2222 5.3409C97.2222 5.3409 97.6616 6.20356 97.3893 6.65069C97.3893 6.65069 97.2222 5.4875 97.0799 5.48147C97.0799 5.48147 96.5275 6.25238 96.4703 6.77545C96.4979 6.28749 96.6622 5.8147 96.9469 5.40386C96.6281 5.45997 96.334 5.6014 96.1005 5.81078C96.1005 5.81078 96.1872 5.26587 97.0831 5.21846C97.0831 5.21846 97.5473 4.63333 97.6617 4.59735C97.6617 4.59735 96.7706 4.52836 96.2305 4.75154C96.2305 4.75154 96.7055 4.23823 97.8242 4.47118L98.4431 3.99668C98.4431 3.99668 97.2692 3.85149 96.7714 4.01158C96.7714 4.01158 97.3439 3.55725 98.6111 3.88798L99.2919 3.50984C99.2919 3.50984 98.2909 3.31005 97.6952 3.38136C97.6952 3.38136 98.3249 3.06644 99.4916 3.40705L99.979 3.2043C99.979 3.2043 99.2462 3.07055 99.0305 3.04896C98.8148 3.02738 98.8045 2.97277 98.8045 2.97277C99.269 2.90097 99.7458 2.95075 100.182 3.11655C100.182 3.11655 101.228 2.75499 101.21 2.69511Z" fill="#3F3D56"/>
<path d="M10.5412 61.2125C10.5412 61.2125 4.66175 60.8832 5.34867 64.7163C5.34867 64.7163 5.2104 65.3936 5.8716 65.7012C5.8716 65.7012 5.88239 65.4136 6.47653 65.5128C6.68754 65.5458 6.90201 65.5555 7.11546 65.5416C7.40408 65.5239 7.67851 65.4188 7.89682 65.2425C7.89682 65.2425 9.55233 64.607 10.196 62.0938C10.196 62.0938 10.6709 61.5461 10.6523 61.4051L9.65893 61.7991C9.65893 61.7991 9.99782 62.4647 9.73166 63.0183C9.73166 63.0183 9.69916 61.8233 9.5089 61.8508C9.47019 61.8508 8.99205 62.0821 8.99205 62.0821C8.99205 62.0821 9.57693 63.2423 9.13599 64.085C9.13599 64.085 9.30302 62.6558 8.80954 62.1655L8.11018 62.551C8.11018 62.551 8.79253 63.7486 8.32988 64.7264C8.32988 64.7264 8.44908 63.2268 7.9632 62.6431L7.33034 63.1032C7.33034 63.1032 7.97094 64.2836 7.58102 65.0947C7.58102 65.0947 7.52848 63.3492 7.19263 63.217C7.19263 63.217 6.63872 63.6714 6.55354 63.8583C6.55354 63.8583 6.99296 64.721 6.72071 65.1681C6.72071 65.1681 6.55355 64.0049 6.41127 63.9989C6.41127 63.9989 5.85888 64.7698 5.80164 65.2929C5.8293 64.8049 5.99359 64.3321 6.27825 63.9213C5.95949 63.9774 5.66533 64.1188 5.43191 64.3282C5.43191 64.3282 5.5186 63.7833 6.41445 63.7359C6.41445 63.7359 6.87862 63.1507 6.9931 63.1148C6.9931 63.1148 6.10196 63.0458 5.56188 63.2689C5.56188 63.2689 6.03683 62.7556 7.15557 62.9886L7.77446 62.5141C7.77446 62.5141 6.60055 62.3689 6.10279 62.529C6.10279 62.529 6.67522 62.0747 7.94245 62.4054L8.62329 62.0272C8.62329 62.0272 7.62223 61.8274 7.02657 61.8988C7.02657 61.8988 7.65623 61.5838 8.82295 61.9245L9.31035 61.7217C9.31035 61.7217 8.57753 61.5879 8.36183 61.5664C8.14613 61.5448 8.13589 61.4902 8.13589 61.4902C8.60036 61.4184 9.07718 61.4682 9.51292 61.6339C9.51292 61.6339 10.5593 61.2724 10.5412 61.2125Z" fill="#3F3D56"/>
<defs>
<linearGradient id="paint0_linear_552_1241" x1="29.3019" y1="50.0584" x2="29.3019" y2="50.0216" gradientUnits="userSpaceOnUse">
<stop stop-color="#808080" stop-opacity="0.251"/>
<stop offset="0.54" stop-color="#808080" stop-opacity="0.122"/>
<stop offset="1" stop-color="#808080" stop-opacity="0.102"/>
</linearGradient>
</defs>
</svg>
